<?xml version='1.0' encoding='UTF-8'?>
<svg xmlns="http://www.w3.org/2000/svg" width="100%" height="100%" viewBox="0 0 800 800" version="1.1" xml:space="preserve" style="fill-rule:evenodd;clip-rule:evenodd;stroke-linejoin:round;stroke-miterlimit:2;">
    <g transform="matrix(1.61225,0,0,1.61225,0,0)">
        </g>
    <g transform="matrix(1.61225,0,0,1.61225,0,0)">
        </g>
    <g transform="matrix(1.61225,0,0,1.61225,0,0)">
        </g>
    <g transform="matrix(1.61225,0,0,1.61225,0,0)">
        </g>
    <g transform="matrix(1.61225,0,0,1.61225,0,0)">
        </g>
    <g transform="matrix(1.61225,0,0,1.61225,0,0)">
        </g>
    <g transform="matrix(1.61225,0,0,1.61225,0,0)">
        </g>
    <g transform="matrix(1.61225,0,0,1.61225,0,0)">
        </g>
    <g transform="matrix(1.61225,0,0,1.61225,0,0)">
        </g>
    <g transform="matrix(1.61225,0,0,1.61225,0,0)">
        </g>
    <g id="propeller">
        <g transform="matrix(1.61225,0,0,1.61225,0,0)">
            </g>
        <g transform="matrix(1.61225,0,0,1.61225,0,0)">
            </g>
    </g>
    <g id="spin_me">
        <g transform="matrix(1.61225,0,0,1.61225,0,0)">
            </g>
        <g transform="matrix(1.61225,0,0,1.61225,0,0)">
            <path d="M17,244.523C17,225.323 32.2,210.123 51.4,210.123" style="fill:#bc043d;fill-rule:nonzero;" />
        </g>
        <g transform="matrix(1.61225,0,0,1.61225,0,0)">
            <circle cx="51.4" cy="244.523" r="13.6" style="fill:#bc043d;" />
        </g>
        <g transform="matrix(1.61225,0,0,1.61225,0,0)">
            </g>
        <g transform="matrix(1.61225,0,0,1.61225,0,0)">
            </g>
        <g transform="matrix(1.61225,0,0,1.61225,0,0)">
            </g>
        <g transform="matrix(1.61225,0,0,1.61225,0,0)">
            </g>
    </g>
</svg>