<?xml version="1.0" encoding="iso-8859-1"?>
<!-- Uploaded to: SVG Repo, www.svgrepo.com, Generator: SVG Repo Mixer Tools -->
<svg height="800px" width="800px" version="1.1" id="Layer_1" xmlns="http://www.w3.org/2000/svg" xmlns:xlink="http://www.w3.org/1999/xlink" 
	 viewBox="0 0 504 504" xml:space="preserve"><circle style="fill:#203547;" cx="100.8" cy="346.2" r="45.6"/>
<path style="fill:#122130;" d="M132.8,314.2c17.6,17.6,17.6,46.4,0,64.8c-17.6,17.6-46.4,17.6-64.8,0"/>
<circle style="fill:#6E7577;" cx="100.8" cy="346.2" r="28.8"/>
<path style="fill:#4C5456;" d="M120.8,326.2c11.2,11.2,11.2,29.6,0,40.8c-11.2,11.2-29.6,11.2-40.8,0"/>
<circle style="fill:#CED8DD;" cx="100.8" cy="346.2" r="24.8"/>
<path style="fill:#B2BBC1;" d="M118.4,328.6c9.6,9.6,9.6,25.6,0,35.2s-25.6,9.6-35.2,0"/>
<path style="opacity:0.2;fill:#888F91;enable-background:new    ;" d="M112.8,346.2c0,6.4-5.6,13.6-12,13.6s-12-7.2-12-13.6
	s5.6-12,12-12C107.2,335,112.8,339.8,112.8,346.2z"/>
<circle style="fill:#E7EFF2;" cx="100.8" cy="346.2" r="12"/>
<path style="fill:#DAE6EA;" d="M100.8,335c6.4,0,12,5.6,12,12s-5.6,12-12,12"/>
<path style="fill:#666E70;" d="M100.8,321.4c-0.8,0-2.4,0-3.2,0c0.8,4,1.6,6.4,3.2,6.4s3.2-2.4,3.2-6.4
	C103.2,321.4,102.4,321.4,100.8,321.4z"/>
<path style="fill:#535A5B;" d="M100.8,327.8c1.6,0,3.2-2.4,3.2-6.4c-0.8,0-2.4,0-3.2,0"/>
<path style="fill:#666E70;" d="M97.6,371c2.4,0,4.8,0,6.4,0c-0.8-3.2-1.6-6.4-3.2-6.4C99.2,364.6,97.6,367.8,97.6,371z"/>
<path style="fill:#535A5B;" d="M104,371c-0.8-3.2-1.6-6.4-3.2-6.4"/>
<path style="fill:#666E70;" d="M80.8,331c3.2,2.4,5.6,3.2,6.4,2.4c0.8-0.8,0-4-1.6-6.4C84,327.8,82.4,329.4,80.8,331z"/>
<path style="fill:#535A5B;" d="M88,333.4c0.8-0.8,0-4-1.6-6.4"/>
<path style="fill:#666E70;" d="M120.8,361.4c-3.2-2.4-5.6-3.2-6.4-1.6c-0.8,0.8,0,4,1.6,6.4c0.8-0.8,1.6-1.6,2.4-2.4
	C119.2,363,120,362.2,120.8,361.4z"/>
<path style="fill:#535A5B;" d="M118.4,363.8c0.8-0.8,1.6-1.6,2.4-2.4c-3.2-2.4-5.6-3.2-6.4-1.6"/>
<path style="fill:#666E70;" d="M76,349.4c3.2-0.8,6.4-1.6,6.4-3.2S80,343,76,343c0,0.8,0,2.4,0,3.2C76,347.8,76,348.6,76,349.4z"/>
<path style="fill:#535A5B;" d="M82.4,346.2c0-1.6-2.4-3.2-6.4-3.2c0,0.8,0,2.4,0,3.2"/>
<path style="fill:#666E70;" d="M119.2,346.2c0,1.6,2.4,3.2,6.4,3.2c0-2.4,0-4.8,0-6.4C122.4,343.8,119.2,344.6,119.2,346.2z"/>
<path style="fill:#535A5B;" d="M125.6,343c-3.2,0.8-6.4,1.6-6.4,3.2"/>
<path style="fill:#666E70;" d="M80.8,361.4c1.6,1.6,3.2,3.2,4.8,4.8c2.4-3.2,3.2-5.6,1.6-6.4C86.4,358.2,84,359,80.8,361.4z"/>
<path style="fill:#535A5B;" d="M85.6,366.2c2.4-3.2,3.2-5.6,1.6-6.4"/>
<path style="fill:#666E70;" d="M116,326.2c-2.4,3.2-3.2,5.6-2.4,6.4c0.8,0.8,4,0,6.4-1.6C119.2,329.4,117.6,327.8,116,326.2z"/>
<path style="fill:#535A5B;" d="M116,326.2c-2.4,3.2-3.2,5.6-2.4,6.4"/>
<circle style="fill:#203547;" cx="400" cy="346.2" r="45.6"/>
<path style="fill:#122130;" d="M432.8,314.2c17.6,17.6,17.6,46.4,0,64.8c-17.6,17.6-46.4,17.6-64.8,0"/>
<circle style="fill:#6E7577;" cx="400" cy="346.2" r="28.8"/>
<path style="fill:#4C5456;" d="M420.8,326.2c11.2,11.2,11.2,29.6,0,40.8c-11.2,11.2-29.6,11.2-40.8,0"/>
<circle style="fill:#CED8DD;" cx="400" cy="346.2" r="24.8"/>
<path style="fill:#B2BBC1;" d="M418.4,328.6c9.6,9.6,9.6,25.6,0,35.2s-25.6,9.6-35.2,0"/>
<path style="opacity:0.2;fill:#888F91;enable-background:new    ;" d="M412,346.2c0,6.4-5.6,13.6-12,13.6s-12-7.2-12-13.6
	s5.6-12,12-12S412,339.8,412,346.2z"/>
<circle style="fill:#E7EFF2;" cx="400" cy="346.2" r="12"/>
<path style="fill:#DAE6EA;" d="M400,335c6.4,0,12,5.6,12,12s-5.6,12-12,12"/>
<path style="fill:#666E70;" d="M400,321.4c-0.8,0-2.4,0-3.2,0c0.8,4,1.6,6.4,3.2,6.4s3.2-2.4,3.2-6.4
	C402.4,321.4,401.6,321.4,400,321.4z"/>
<path style="fill:#535A5B;" d="M400,327.8c1.6,0,3.2-2.4,3.2-6.4c-0.8,0-2.4,0-3.2,0"/>
<path style="fill:#666E70;" d="M396.8,371c2.4,0,4.8,0,6.4,0c-0.8-3.2-1.6-6.4-3.2-6.4C399.2,364.6,397.6,367.8,396.8,371z"/>
<path style="fill:#535A5B;" d="M404,371c-0.8-3.2-1.6-6.4-3.2-6.4"/>
<path style="fill:#666E70;" d="M380.8,331c3.2,2.4,5.6,3.2,6.4,2.4c0.8-0.8,0-4-2.4-6.4C383.2,327.8,381.6,329.4,380.8,331z"/>
<path style="fill:#535A5B;" d="M387.2,333.4c0.8-0.8,0-4-2.4-6.4"/>
<path style="fill:#666E70;" d="M420,361.4c-3.2-2.4-5.6-3.2-6.4-1.6c-0.8,0.8,0,4,1.6,6.4c0.8-0.8,1.6-1.6,2.4-2.4
	C419.2,363,419.2,362.2,420,361.4z"/>
<path style="fill:#535A5B;" d="M418.4,363.8c0.8-0.8,1.6-1.6,2.4-2.4c-3.2-2.4-5.6-3.2-6.4-1.6"/>
<path style="fill:#666E70;" d="M375.2,349.4c4-0.8,6.4-1.6,6.4-3.2s-2.4-3.2-6.4-3.2c0,0.8,0,2.4,0,3.2
	C375.2,347.8,375.2,348.6,375.2,349.4z"/>
<path style="fill:#535A5B;" d="M381.6,346.2c0-1.6-2.4-3.2-6.4-3.2c0,0.8,0,2.4,0,3.2"/>
<path style="fill:#666E70;" d="M419.2,346.2c0,1.6,2.4,3.2,6.4,3.2c0-2.4,0-4.8,0-6.4C421.6,343.8,419.2,344.6,419.2,346.2z"/>
<path style="fill:#535A5B;" d="M424.8,343c-3.2,0.8-6.4,1.6-6.4,3.2"/>
<path style="fill:#666E70;" d="M380.8,361.4c1.6,1.6,3.2,3.2,4.8,4.8c2.4-3.2,3.2-5.6,2.4-6.4C386.4,358.2,383.2,359,380.8,361.4z"
	/>
<path style="fill:#535A5B;" d="M385.6,366.2c2.4-3.2,3.2-5.6,2.4-6.4"/>
<path style="fill:#666E70;" d="M415.2,326.2c-2.4,3.2-3.2,5.6-2.4,6.4c0.8,0.8,4,0,6.4-1.6C419.2,329.4,417.6,327.8,415.2,326.2z"/>
<path style="fill:#535A5B;" d="M415.2,326.2c-2.4,3.2-3.2,5.6-2.4,6.4"/></svg>